<svg width="26" height="21" viewBox="0 0 26 21" fill="none" xmlns="http://www.w3.org/2000/svg">
<path fill-rule="evenodd" clip-rule="evenodd" d="M1.00265 10.5002C0.998664 12.169 0.920277 14.4452 2.00706 15.296C3.02076 16.0897 3.73421 15.8852 5.58492 16.0142C7.43696 16.1444 11.3456 21.3164 14.3589 19.6805C15.9133 18.5193 16.0289 16.0848 16.0289 10.5002C16.0289 4.91557 15.9133 2.48112 14.3589 1.31989C11.3456 -0.317276 7.43696 4.85592 5.58492 4.98616C3.73421 5.11519 3.02076 4.9107 2.00706 5.70433C0.920277 6.55517 0.998664 8.83137 1.00265 10.5002Z" fill="white" stroke="white" stroke-width="1.5" stroke-linecap="round" stroke-linejoin="round"/>
<path d="M21.9053 2C25.5482 6.98209 25.5602 13.5539 21.9053 18.5457" stroke="white" stroke-width="1.5" stroke-linecap="round" stroke-linejoin="round"/>
<path d="M19 5.27051C20.8733 8.3793 20.8733 12.1758 19 15.2749" stroke="white" stroke-width="1.5" stroke-linecap="round" stroke-linejoin="round"/>
</svg>
