<svg width="21" height="21" viewBox="0 0 21 21" fill="none" xmlns="http://www.w3.org/2000/svg">
<path fill-rule="evenodd" clip-rule="evenodd" d="M14.9515 1H6.0451C2.94454 1 1 3.19714 1 6.30649V14.6935C1 17.8029 2.93631 20 6.0451 20H14.9464C18.0603 20 19.9956 17.8029 19.9956 14.6935V6.30649C19.9997 3.19714 18.0634 1 14.9515 1Z" fill="white" stroke="white" stroke-width="1.5" stroke-linecap="round" stroke-linejoin="round"/>
<path fill-rule="evenodd" clip-rule="evenodd" d="M9.18727 7.21409C9.18727 8.26427 8.33699 9.11471 7.287 9.11471C6.23803 9.11471 5.38672 8.26427 5.38672 7.21409C5.38672 6.16392 6.23803 5.31348 7.287 5.31348C8.33596 5.31451 9.18625 6.16494 9.18727 7.21409Z" stroke="#001538" stroke-width="1.5" stroke-linecap="round" stroke-linejoin="round"/>
<path d="M19.9996 13.5623C19.0494 12.5842 17.2223 10.6084 15.2355 10.6084C13.2477 10.6084 12.102 14.9666 10.1904 14.9666C8.2788 14.9666 6.5422 12.996 5.01045 14.2593C3.4787 15.5216 2.0293 18.1028 2.0293 18.1028" stroke="#001538" stroke-width="1.5" stroke-linecap="round" stroke-linejoin="round"/>
</svg>
