<svg width="24" height="18" viewBox="0 0 24 18" fill="none" xmlns="http://www.w3.org/2000/svg">
<path fill-rule="evenodd" clip-rule="evenodd" d="M16.9285 13.0438C17.0206 15.1376 15.3379 16.9081 13.1705 16.9971C13.0109 17.0039 5.228 16.9881 5.228 16.9881C3.07108 17.1525 1.18333 15.596 1.0132 13.5101C1.00039 13.3546 1.00388 4.96822 1.00388 4.96822C0.908329 2.87218 2.58866 1.09713 4.75723 1.00477C4.9192 0.996889 12.6916 1.01153 12.6916 1.01153C14.859 0.849344 16.7526 2.41715 16.9204 4.51319C16.932 4.66412 16.9285 13.0438 16.9285 13.0438Z" fill="white" stroke="white" stroke-width="1.5" stroke-linecap="round" stroke-linejoin="round"/>
<path d="M16.9326 6.69166L20.6801 3.61166C21.6087 2.84823 23.0016 3.51338 23.0005 4.7168L22.9868 13.1157C22.9857 14.3191 21.5916 14.9785 20.6653 14.2151L16.9326 11.1351" stroke="white" stroke-width="1.5" stroke-linecap="round" stroke-linejoin="round"/>
</svg>
