<svg width="26" height="25" viewBox="0 0 26 25" fill="none" xmlns="http://www.w3.org/2000/svg">
<path d="M12.8691 19.4743H1.05524" stroke="#757575" stroke-width="2" stroke-linecap="round" stroke-linejoin="round"/>
<path d="M13 5.50161H24.8138" stroke="#757575" stroke-width="2" stroke-linecap="round" stroke-linejoin="round"/>
<path fill-rule="evenodd" clip-rule="evenodd" d="M9.86179 5.39923C9.86179 2.96987 7.87774 1 5.43089 1C2.98405 1 1 2.96987 1 5.39923C1 7.82858 2.98405 9.79845 5.43089 9.79845C7.87774 9.79845 9.86179 7.82858 9.86179 5.39923Z" stroke="#757575" stroke-width="2" stroke-linecap="round" stroke-linejoin="round"/>
<path fill-rule="evenodd" clip-rule="evenodd" d="M24.8618 19.3992C24.8618 16.9699 22.8793 15 20.4324 15C17.9841 15 16 16.9699 16 19.3992C16 21.8286 17.9841 23.7985 20.4324 23.7985C22.8793 23.7985 24.8618 21.8286 24.8618 19.3992Z" stroke="#757575" stroke-width="2" stroke-linecap="round" stroke-linejoin="round"/>
</svg>
