<svg width="104" height="83" viewBox="0 0 104 83" fill="none" xmlns="http://www.w3.org/2000/svg">
<g filter="url(#filter0_d_1084_196)">
<path d="M85.4157 18.4096C85.4157 24.7503 80.2716 29.8915 73.9248 29.8915C67.578 29.8915 62.4338 24.7503 62.4338 18.4096C62.4338 12.0689 67.578 6.92773 73.9248 6.92773C80.2716 6.92773 85.4157 12.0689 85.4157 18.4096Z" fill="#FB7C6B" stroke="black" stroke-width="1.5"/>
<mask id="path-2-inside-1_1084_196" fill="white">
<path d="M88 51.1912C91.3137 51.1912 94.0703 48.471 93.328 45.2415C92.4293 41.3312 90.6521 37.7258 88.136 34.8153C84.3814 30.4722 79.2891 28.0322 73.9792 28.0322C68.6694 28.0322 63.577 30.4722 59.8224 34.8153C57.3064 37.7258 55.5291 41.3312 54.6304 45.2415C53.8882 48.471 56.6448 51.1912 59.9585 51.1912L73.9792 51.1912H88Z"/>
</mask>
<path d="M88 51.1912C91.3137 51.1912 94.0703 48.471 93.328 45.2415C92.4293 41.3312 90.6521 37.7258 88.136 34.8153C84.3814 30.4722 79.2891 28.0322 73.9792 28.0322C68.6694 28.0322 63.577 30.4722 59.8224 34.8153C57.3064 37.7258 55.5291 41.3312 54.6304 45.2415C53.8882 48.471 56.6448 51.1912 59.9585 51.1912L73.9792 51.1912H88Z" fill="#FB7C6B" stroke="black" stroke-width="3" mask="url(#path-2-inside-1_1084_196)"/>
<path d="M41.4572 18.4096C41.4572 24.7503 36.3131 29.8915 29.9663 29.8915C23.6195 29.8915 18.4753 24.7503 18.4753 18.4096C18.4753 12.0689 23.6195 6.92773 29.9663 6.92773C36.3131 6.92773 41.4572 12.0689 41.4572 18.4096Z" fill="#6CC6FB" stroke="black" stroke-width="1.5"/>
<mask id="path-4-inside-2_1084_196" fill="white">
<path d="M44.0415 51.1912C47.3552 51.1912 50.1118 48.471 49.3695 45.2415C48.4708 41.3312 46.6936 37.7258 44.1775 34.8153C40.4229 30.4722 35.3306 28.0322 30.0207 28.0322C24.7109 28.0322 19.6186 30.4722 15.8639 34.8153C13.3479 37.7258 11.5706 41.3312 10.6719 45.2415C9.92967 48.471 12.6863 51.1912 16 51.1912L30.0207 51.1912H44.0415Z"/>
</mask>
<path d="M44.0415 51.1912C47.3552 51.1912 50.1118 48.471 49.3695 45.2415C48.4708 41.3312 46.6936 37.7258 44.1775 34.8153C40.4229 30.4722 35.3306 28.0322 30.0207 28.0322C24.7109 28.0322 19.6186 30.4722 15.8639 34.8153C13.3479 37.7258 11.5706 41.3312 10.6719 45.2415C9.92967 48.471 12.6863 51.1912 16 51.1912L30.0207 51.1912H44.0415Z" fill="#6CC6FB" stroke="black" stroke-width="3" mask="url(#path-4-inside-2_1084_196)"/>
<path d="M63.9806 26.2368C63.9806 32.5775 58.8365 37.7186 52.4897 37.7186C46.1429 37.7186 40.9988 32.5775 40.9988 26.2368C40.9988 19.896 46.1429 14.7549 52.4897 14.7549C58.8365 14.7549 63.9806 19.896 63.9806 26.2368Z" fill="#EFBE5F" stroke="black" stroke-width="1.5"/>
<mask id="path-6-inside-3_1084_196" fill="white">
<path d="M66.5649 59.0184C69.8786 59.0184 72.6352 56.2982 71.893 53.0687C70.9943 49.1583 69.217 45.553 66.701 42.6425C62.9463 38.2993 57.854 35.8594 52.5442 35.8594C47.2343 35.8594 42.142 38.2993 38.3874 42.6425C35.8713 45.553 34.0941 49.1583 33.1954 53.0687C32.4531 56.2982 35.2097 59.0184 38.5234 59.0184L52.5442 59.0184H66.5649Z"/>
</mask>
<path d="M66.5649 59.0184C69.8786 59.0184 72.6352 56.2982 71.893 53.0687C70.9943 49.1583 69.217 45.553 66.701 42.6425C62.9463 38.2993 57.854 35.8594 52.5442 35.8594C47.2343 35.8594 42.142 38.2993 38.3874 42.6425C35.8713 45.553 34.0941 49.1583 33.1954 53.0687C32.4531 56.2982 35.2097 59.0184 38.5234 59.0184L52.5442 59.0184H66.5649Z" fill="#EFBE5F" stroke="black" stroke-width="3" mask="url(#path-6-inside-3_1084_196)"/>
</g>
<defs>
<filter id="filter0_d_1084_196" x="0" y="0.177734" width="104" height="96" filterUnits="userSpaceOnUse" color-interpolation-filters="sRGB">
<feFlood flood-opacity="0" result="BackgroundImageFix"/>
<feColorMatrix in="SourceAlpha" type="matrix" values="0 0 0 0 0 0 0 0 0 0 0 0 0 0 0 0 0 0 127 0" result="hardAlpha"/>
<feOffset dy="4"/>
<feGaussianBlur stdDeviation="5"/>
<feComposite in2="hardAlpha" operator="out"/>
<feColorMatrix type="matrix" values="0 0 0 0 0 0 0 0 0 0 0 0 0 0 0 0 0 0 0.25 0"/>
<feBlend mode="normal" in2="BackgroundImageFix" result="effect1_dropShadow_1084_196"/>
<feBlend mode="normal" in="SourceGraphic" in2="effect1_dropShadow_1084_196" result="shape"/>
</filter>
</defs>
</svg>
