<svg width="9" height="8" viewBox="0 0 9 8" fill="none" xmlns="http://www.w3.org/2000/svg">
<path fill-rule="evenodd" clip-rule="evenodd" d="M4.55143 0C3.50718 0 3.37612 0.004566 2.96599 0.0232305C2.55665 0.0419752 2.27724 0.10678 2.03276 0.201865C1.77987 0.300074 1.56534 0.431447 1.35162 0.645248C1.13774 0.858969 1.00637 1.07349 0.90784 1.3263C0.812515 1.57087 0.747629 1.85035 0.729205 2.25953C0.710861 2.66967 0.706055 2.8008 0.706055 3.84505C0.706055 4.88931 0.710701 5.01996 0.729285 5.4301C0.74811 5.83944 0.812915 6.11884 0.90792 6.36333C1.00621 6.61622 1.13758 6.83074 1.35138 7.04446C1.56502 7.25834 1.77955 7.39004 2.03228 7.48824C2.27692 7.58333 2.55641 7.64813 2.96567 7.66688C3.3758 7.68554 3.50678 7.69011 4.55095 7.69011C5.59528 7.69011 5.72593 7.68554 6.13607 7.66688C6.54541 7.64813 6.82514 7.58333 7.06978 7.48824C7.32259 7.39004 7.53679 7.25834 7.75044 7.04446C7.96432 6.83074 8.09569 6.61622 8.19422 6.36341C8.28874 6.11884 8.35363 5.83936 8.37285 5.43018C8.39128 5.02004 8.39608 4.88931 8.39608 3.84505C8.39608 2.8008 8.39128 2.66975 8.37285 2.25961C8.35363 1.85027 8.28874 1.57087 8.19422 1.32638C8.09569 1.07349 7.96432 0.858969 7.75044 0.645248C7.53655 0.431367 7.32267 0.299994 7.06954 0.201865C6.82442 0.10678 6.54485 0.0419752 6.13551 0.0232305C5.72537 0.004566 5.5948 0 4.55023 0H4.55143ZM4.20649 0.692804C4.30887 0.692644 4.4231 0.692804 4.55143 0.692804C5.57806 0.692804 5.69974 0.696489 6.10515 0.714913C6.48004 0.732056 6.68351 0.794698 6.81905 0.847327C6.99849 0.917019 7.12641 1.00033 7.26091 1.13491C7.39549 1.26948 7.4788 1.39765 7.54865 1.57709C7.60128 1.71246 7.664 1.91593 7.68106 2.29082C7.69949 2.69616 7.70349 2.81792 7.70349 3.84407C7.70349 4.87022 7.69949 4.99198 7.68106 5.39731C7.66392 5.7722 7.60128 5.97567 7.54865 6.11105C7.47896 6.29048 7.39549 6.41825 7.26091 6.55275C7.12633 6.68732 6.99857 6.77063 6.81905 6.84032C6.68367 6.89319 6.48004 6.95568 6.10515 6.97282C5.69982 6.99124 5.57806 6.99525 4.55143 6.99525C3.52472 6.99525 3.40304 6.99124 2.99771 6.97282C2.62281 6.95552 2.41935 6.89287 2.28373 6.84024C2.10429 6.77055 1.97612 6.68724 1.84155 6.55267C1.70697 6.41809 1.62366 6.29024 1.55381 6.11073C1.50118 5.97535 1.43846 5.77188 1.42139 5.39699C1.40297 4.99165 1.39928 4.86989 1.39928 3.84311C1.39928 2.81632 1.40297 2.6952 1.42139 2.28986C1.43854 1.91497 1.50118 1.7115 1.55381 1.57596C1.6235 1.39653 1.70697 1.26836 1.84155 1.13378C1.97612 0.999207 2.10429 0.915897 2.28373 0.846045C2.41927 0.793176 2.62281 0.730694 2.99771 0.713471C3.35241 0.69745 3.48987 0.692644 4.20649 0.691843V0.692804ZM6.60389 1.33128C6.34916 1.33128 6.14249 1.53772 6.14249 1.79253C6.14249 2.04727 6.34916 2.25394 6.60389 2.25394C6.85863 2.25394 7.0653 2.04727 7.0653 1.79253C7.0653 1.5378 6.85863 1.33112 6.60389 1.33112V1.33128ZM4.55151 1.8709C3.46103 1.8709 2.57691 2.75503 2.57691 3.8455C2.57691 4.93597 3.46103 5.8197 4.55151 5.8197C5.64198 5.8197 6.52578 4.93597 6.52578 3.8455C6.52578 2.75503 5.6419 1.8709 4.55143 1.8709H4.55151ZM4.5514 2.56369C5.25921 2.56369 5.83308 3.13748 5.83308 3.84537C5.83308 4.55318 5.25921 5.12706 4.5514 5.12706C3.84351 5.12706 3.26971 4.55318 3.26971 3.84537C3.26971 3.13748 3.84351 2.56369 4.5514 2.56369Z" fill="#F2F2F2"/>
</svg>
